<svg xmlns="http://www.w3.org/2000/svg" viewBox="0 0 64 64"><rect width="58" height="58" x="4" y="3" fill="#007579"/><path fill="#009698" d="M39 54H35.722a2 2 0 1 0 0 2H39zM56 53a1.993 1.993 0 0 0-1.722 1H51v2h3.278A2 2 0 1 0 56 53zM62 20H56.722a2 2 0 1 0 0 2H62z"/><rect width="3" height="3" x="17" y="34" fill="#78b9eb"/><rect width="3" height="3" x="17" y="21" fill="#78b9eb"/><rect width="3" height="3" x="17" y="27" fill="#78b9eb"/><rect width="3" height="3" x="17" y="40" fill="#78b9eb"/><path fill="#009698" d="M16,54a2,2,0,0,0-1.721,1H10.535L9,52.7V48.721a2,2,0,1,0-2,0V53a1.006,1.006,0,0,0,.168.555l2,3A1,1,0,0,0,10,57h4.279A2,2,0,1,0,16,54Z"/><rect width="3" height="3" x="44" y="34" fill="#78b9eb"/><rect width="3" height="3" x="44" y="40" fill="#78b9eb"/><rect width="3" height="3" x="44" y="27" fill="#78b9eb"/><rect width="3" height="3" x="44" y="21" fill="#78b9eb"/><path fill="#ff9811" d="M49,52a3,3,0,0,1,0,6H41a3,3,0,0,1,0-6Z"/><rect width="3" height="3" x="34" y="17" fill="#78b9eb"/><rect width="3" height="3" x="40" y="17" fill="#78b9eb"/><rect width="3" height="3" x="27" y="17" fill="#78b9eb"/><rect width="3" height="3" x="21" y="17" fill="#78b9eb"/><path fill="#009698" d="M9,22.279V9.721a2,2,0,1,0-2,0V22.279a2,2,0,1,0,2,0Z"/><rect width="4" height="8" x="14" y="6" fill="#ff5023"/><rect width="8" height="3" x="47" y="6" fill="#ffda44"/><rect width="8" height="3" x="47" y="12" fill="#ffda44"/><rect width="24" height="24" x="20" y="20" fill="#3e3d42"/><path fill="#57565c" d="M20,20H44a0,0,0,0,1,0,0v1.617A22.383,22.383,0,0,1,21.617,44H20a0,0,0,0,1,0,0V20A0,0,0,0,1,20,20Z"/><rect width="3" height="3" x="21" y="17" fill="#e0e0e2"/><rect width="3" height="3" x="27" y="17" fill="#e0e0e2"/><rect width="3" height="3" x="34" y="17" fill="#e0e0e2"/><rect width="3" height="3" x="40" y="17" fill="#e0e0e2"/><rect width="3" height="3" x="44" y="21" fill="#e0e0e2"/><rect width="3" height="3" x="44" y="27" fill="#e0e0e2"/><rect width="3" height="3" x="44" y="34" fill="#e0e0e2"/><rect width="3" height="3" x="44" y="40" fill="#e0e0e2"/><rect width="3" height="3" x="34" y="44" fill="#e0e0e2"/><rect width="3" height="3" x="40" y="44" fill="#e0e0e2"/><rect width="3" height="3" x="27" y="44" fill="#e0e0e2"/><rect width="3" height="3" x="21" y="44" fill="#e0e0e2"/><rect width="3" height="3" x="17" y="40" fill="#e0e0e2"/><rect width="3" height="3" x="17" y="34" fill="#e0e0e2"/><rect width="3" height="3" x="17" y="27" fill="#e0e0e2"/><rect width="3" height="3" x="17" y="21" fill="#e0e0e2"/><circle cx="24" cy="24" r="1" fill="#ff5023"/><path fill="#009698" d="M54 35.722V45H52.722a2 2 0 1 0 0 2H55a1 1 0 0 0 1-1V35.722a2 2 0 1 0-2 0zM24 10a1.993 1.993 0 0 0 1.722-1h7.556a2 2 0 1 0 0-2H25.722A2 2 0 1 0 24 10z"/><rect width="3" height="1" x="21" y="44" fill="#c6c5ca"/><rect width="3" height="1" x="27" y="44" fill="#c6c5ca"/><rect width="3" height="1" x="34" y="44" fill="#c6c5ca"/><rect width="3" height="1" x="40" y="44" fill="#c6c5ca"/><rect width="3" height="1" x="37" y="44" fill="#006468"/><rect width="1" height="1" x="43" y="44" fill="#006468"/><rect width="4" height="1" x="30" y="44" fill="#006468"/><rect width="3" height="1" x="24" y="44" fill="#006468"/><rect width="1" height="1" x="20" y="44" fill="#006468"/><rect width="5" height="1" x="40" y="53" fill="#ffad41"/></svg>