<?xml version="1.0" encoding="UTF-8" standalone="no"?>
<!DOCTYPE svg PUBLIC "-//W3C//DTD SVG 1.1//EN" "http://www.w3.org/Graphics/SVG/1.1/DTD/svg11.dtd">
<!-- Created with Vectornator (http://vectornator.io/) -->
<svg height="100%" stroke-miterlimit="10" style="fill-rule:nonzero;clip-rule:evenodd;stroke-linecap:round;stroke-linejoin:round;" version="1.1" viewBox="0 0 1453.72 586.978" width="100%" xml:space="preserve" xmlns="http://www.w3.org/2000/svg" xmlns:vectornator="http://vectornator.io" xmlns:xlink="http://www.w3.org/1999/xlink">
<defs/>
<clipPath id="ArtboardFrame">
<rect height="586.978" width="1453.72" x="0" y="0"/>
</clipPath>
<g clip-path="url(#ArtboardFrame)" id="Layer-1" vectornator:layerName="Layer 1">
<g opacity="1">
<g opacity="1">
<clipPath id="ClipPath">
<path d="M5.12714 0L781.627 0L781.627 0L781.627 605L781.627 605L5.12714 605L5.12714 605L5.12714 0L5.12714 0Z"/>
</clipPath>
<g clip-path="url(#ClipPath)">
<path d="M157.127 211L120.627 403.5L119.627 403.5L81.1271 211L9.12714 211L78.6271 480L158.627 480L226.127 211L157.127 211Z" fill="#e07641" fill-rule="nonzero" opacity="1" stroke="none"/>
</g>
</g>
<g opacity="1">
<clipPath id="ClipPath_2">
<path d="M5.12714 0L781.627 0L781.627 0L781.627 605L781.627 605L5.12714 605L5.12714 605L5.12714 0L5.12714 0Z"/>
</clipPath>
<g clip-path="url(#ClipPath_2)">
<path d="M239.127 119L239.127 178L308.127 178L308.127 119L239.127 119ZM239.127 211L239.127 480L308.127 480L308.127 211L239.127 211Z" fill="#e07641" fill-rule="nonzero" opacity="1" stroke="none"/>
</g>
</g>
<g opacity="1">
<clipPath id="ClipPath_3">
<path d="M5.12714 0L781.627 0L781.627 0L781.627 605L781.627 605L5.12714 605L5.12714 605L5.12714 0L5.12714 0Z"/>
</clipPath>
<g clip-path="url(#ClipPath_3)">
<path d="M341.627 515L341.627 566.5L369.627 566.5C385.627 566.5 398.877 565.33 409.377 563C419.877 560.67 428.877 555.75 436.377 548.25C443.877 540.75 450.377 530.08 455.877 516.25C461.377 502.42 467.127 484.33 473.127 462L538.127 211L469.127 211L434.127 397L433.127 397L393.127 211L321.127 211L396.627 480C395.627 491 392.377 499.83 386.877 506.5C381.377 513.17 372.294 516.5 359.627 516.5C353.627 516.5 347.627 516 341.627 515Z" fill="#e07641" fill-rule="nonzero" opacity="1" stroke="none"/>
</g>
</g>
<g opacity="1">
<clipPath id="ClipPath_4">
<path d="M5.12714 0L781.627 0L781.627 0L781.627 605L781.627 605L5.12714 605L5.12714 605L5.12714 0L5.12714 0Z"/>
</clipPath>
<g clip-path="url(#ClipPath_4)">
<path d="M679.127 345.5L679.127 398.5C679.127 405.83 677.794 412.17 675.127 417.5C672.461 422.83 669.044 427.17 664.877 430.5C660.711 433.83 656.127 436.25 651.127 437.75C646.127 439.25 641.294 440 636.627 440C627.294 440 620.627 436.33 616.627 429C612.627 421.67 610.627 412.83 610.627 402.5C610.627 390.5 613.627 381 619.627 374C625.627 367 635.627 362 649.627 359C653.961 358 658.794 356.42 664.127 354.25C669.461 352.08 674.461 349.17 679.127 345.5ZM553.127 293.5L615.127 293.5L615.127 286C615.127 275.33 617.794 266.83 623.127 260.5C628.461 254.17 636.461 251 647.127 251C658.794 251 667.044 253.92 671.877 259.75C676.711 265.58 679.127 273.67 679.127 284C679.127 293 677.127 299.83 673.127 304.5C669.127 309.17 661.961 312.83 651.627 315.5L612.627 326C600.627 329.33 590.377 333.17 581.877 337.5C573.377 341.83 566.377 347.25 560.877 353.75C555.377 360.25 551.294 368.08 548.627 377.25C545.961 386.42 544.627 397.33 544.627 410C544.627 419 545.794 428.08 548.127 437.25C550.461 446.42 554.127 454.67 559.127 462C564.127 469.33 570.794 475.08 579.127 479.25C587.461 483.42 597.627 485.5 609.627 485.5C626.294 485.5 639.877 483.42 650.377 479.25C660.877 475.08 670.127 466 678.127 452L679.127 452C680.127 456.67 681.211 461.42 682.377 466.25C683.544 471.08 685.294 475.67 687.627 480L753.626 480C750.296 472 748.046 464.5 746.876 457.5C745.706 450.5 745.126 440.67 745.126 428L745.126 286.5C745.126 274.5 743.876 263.42 741.376 253.25C738.876 243.08 734.126 234.33 727.126 227C720.126 219.67 710.294 214 697.627 210C684.961 206 668.294 204 647.627 204C634.627 204 622.377 205.42 610.877 208.25C599.377 211.08 589.377 215.75 580.877 222.25C572.377 228.75 565.627 237.25 560.627 247.75C555.627 258.25 553.127 271.33 553.127 287L553.127 293.5Z" fill="#e07641" fill-rule="nonzero" opacity="1" stroke="none"/>
</g>
</g>
</g>
<path d="M778.816 59.781L778.816 545.22L1421.88 545.22L1421.88 59.781L778.816 59.781ZM1350.41 92.188C1372.51 92.188 1390.41 110.096 1390.41 132.188C1390.41 154.279 1372.51 172.188 1350.41 172.188C1328.32 172.188 1310.41 154.279 1310.41 132.188C1310.41 110.096 1328.32 92.188 1350.41 92.188ZM831.846 123L900.846 123L900.846 480L831.846 480L831.846 123ZM1159.85 123L1228.85 123L1228.85 236L1229.85 236C1237.19 225.33 1245.44 217.33 1254.6 212C1263.77 206.67 1274.85 204 1287.85 204C1316.19 204 1337.02 215.08 1350.35 237.25C1363.69 259.42 1370.35 295.5 1370.35 345.5C1370.35 395.5 1363.69 431.33 1350.35 453C1337.02 474.67 1316.19 485.5 1287.85 485.5C1273.85 485.5 1262.1 483 1252.6 478C1243.1 473 1234.52 464.17 1226.85 451.5L1225.85 451.5L1225.85 480L1159.85 480L1159.85 123ZM1028.35 204C1049.02 204 1065.69 206 1078.35 210C1091.02 214 1100.85 219.67 1107.85 227C1114.85 234.33 1119.6 243.08 1122.1 253.25C1124.6 263.42 1125.85 274.5 1125.85 286.5L1125.85 428C1125.85 440.67 1126.44 450.5 1127.6 457.5C1128.77 464.5 1131.02 472 1134.35 480L1068.35 480C1066.02 475.67 1064.27 471.08 1063.1 466.25C1061.94 461.42 1060.85 456.67 1059.85 452L1058.85 452C1050.85 466 1041.6 475.08 1031.1 479.25C1020.6 483.42 1007.02 485.5 990.346 485.5C978.346 485.5 968.186 483.42 959.846 479.25C951.516 475.08 944.846 469.33 939.846 462C934.846 454.67 931.186 446.42 928.846 437.25C926.516 428.08 925.346 419 925.346 410C925.346 397.33 926.686 386.42 929.346 377.25C932.016 368.08 936.096 360.25 941.596 353.75C947.096 347.25 954.096 341.83 962.596 337.5C971.096 333.17 981.346 329.33 993.346 326L1032.35 315.5C1042.69 312.83 1049.85 309.17 1053.85 304.5C1057.85 299.83 1059.85 293 1059.85 284C1059.85 273.67 1057.44 265.58 1052.6 259.75C1047.77 253.92 1039.52 251 1027.85 251C1017.19 251 1009.19 254.17 1003.85 260.5C998.516 266.83 995.846 275.33 995.846 286L995.846 293.5L933.846 293.5L933.846 287C933.846 271.33 936.346 258.25 941.346 247.75C946.346 237.25 953.096 228.75 961.596 222.25C970.096 215.75 980.096 211.08 991.596 208.25C1003.1 205.42 1015.35 204 1028.35 204ZM1265.35 257C1250.02 257 1240.1 264.42 1235.6 279.25C1231.1 294.08 1228.85 316.17 1228.85 345.5C1228.85 374.83 1231.1 396.92 1235.6 411.75C1240.1 426.58 1250.02 434 1265.35 434C1280.35 434 1290.1 426.58 1294.6 411.75C1299.1 396.92 1301.35 374.83 1301.35 345.5C1301.35 316.17 1299.1 294.08 1294.6 279.25C1290.1 264.42 1280.35 257 1265.35 257ZM1059.85 345.5C1055.19 349.17 1050.19 352.08 1044.85 354.25C1039.52 356.42 1034.69 358 1030.35 359C1016.35 362 1006.35 367 1000.35 374C994.346 381 991.346 390.5 991.346 402.5C991.346 412.83 993.346 421.67 997.346 429C1001.35 436.33 1008.02 440 1017.35 440C1022.02 440 1026.85 439.25 1031.85 437.75C1036.85 436.25 1041.44 433.83 1045.6 430.5C1049.77 427.17 1053.19 422.83 1055.85 417.5C1058.52 412.17 1059.85 405.83 1059.85 398.5L1059.85 345.5Z" fill="#1c8394" fill-rule="nonzero" opacity="1" stroke="none"/>
</g>
</svg>
